<?xml version="1.0" encoding="UTF-8" standalone="no"?>
<svg
   xmlns:dc="http://purl.org/dc/elements/1.1/"
   xmlns:cc="http://creativecommons.org/ns#"
   xmlns:rdf="http://www.w3.org/1999/02/22-rdf-syntax-ns#"
   xmlns:svg="http://www.w3.org/2000/svg"
   xmlns="http://www.w3.org/2000/svg"
   height="33"
   width="152"
   version="1.1"
   id="svg4514">
  <metadata
     id="metadata4524">
    <rdf:RDF>
      <cc:Work
         rdf:about="">
        <dc:format>image/svg+xml</dc:format>
        <dc:type
           rdf:resource="http://purl.org/dc/dcmitype/StillImage" />
        <dc:title></dc:title>
      </cc:Work>
    </rdf:RDF>
  </metadata>
  <defs
     id="defs4522" />
  <g
     style="fill:currentColor"
     id="g4516">
    <path
       id="path4518"
       d="M 0,24.1 C 0,25.7 1.3,27 3,27 l 12,0 0,-3 -12,0 0,-3 11.8,0 c 1.6,0 3.2,-1.3 3.2,-2.9 l 0,0.1 0,-5.9 C 18,10.7 16.5,9.1 14.8,9.1 L 3,9.1 c -1.6,0 -3,1.6 -3,3.2 L 0,24.1 Z M 15,18 3,18 l 0,-6 12,0 0,6 z M 55.1,9 43.2,9 C 41.6,9 40,10.6 40,12.2 l 0,11.9 0,-0.1 c 0,1.6 1.6,3 3.2,3 l 11.8,0 0,3 -12,0 0,3 12.1,0 C 56.7,33 58,31.6 58,30 L 58,12.2 C 58,10.6 56.7,9 55.1,9 Z M 55,24 43,24 43,12 55,12 55,24 Z M 32,9 23.1,9 C 21.5,9 20,10.6 20,12.2 l 0,14.8 3,0 0,-15 9,0 c 1.6,0 3,1.5 3,3.2 l 0,11.8 3,0 0,-11.8 C 38,11.9 35.3,9 32,9 Z m 43,15 -12,0 0,-8.9 c 0,-1.6 1.6,-3.2 3.3,-3.2 l 8.7,0 0,15 3,0 0,-14.7 C 78,10.6 76.8,9 75.2,9 L 66.3,9 C 63,9 60,11.9 60,15.2 l 0,8.9 c 0,1.6 1.7,2.9 3.3,2.9 l 5.2,0 c 2.7,0 5.5,-1.1 6.5,-3 l 0,3 m 68,-27 -3,0 0,27 3,0 0,-15 9,0 0,-3 -9,0 z m -42,24.1 c 0,1.6 0.9,2.9 2.5,2.9 l 11.5,0 0,3 -11,0 0,3 11.4,0 c 1.6,0 2.6,-1.4 2.6,-3.1 l 0,0.1 0,-17.8 C 118,10.6 117,9 115.4,9 l -11.9,0 c -1.6,0 -2.5,1.6 -2.5,3.2 l 0,11.9 z m 14,-0.1 -11,0 0,-12 11,0 0,12 z M 95,9 83.4,9 C 81.8,9 80,10.6 80,12.2 l 0,11.9 0,-0.1 c 0,1.6 1.8,3 3.4,3 L 98,27 98,0 95,0 95,9 Z m 0,15 -12,0 0,-12 12,0 0,12 z m 25,0.1 c 0,1.6 1.7,2.9 3.3,2.9 l 11.7,0 0,-3 -12,0 0,-3 12.2,0 c 1.6,0 2.8,-1.3 2.8,-2.9 l 0,0.1 0,-5.9 c 0,-1.6 -1.2,-3.2 -2.8,-3.2 l -11.9,0 c -1.6,0 -3.3,1.6 -3.3,3.2 l 0,11.8 z m 15,-6.1 -12,0 0,-6 12,0 0,6 z" />
  </g>
</svg>
