<?xml version="1.0" standalone="no"?>
<!DOCTYPE svg PUBLIC "-//W3C//DTD SVG 20010904//EN"
 "http://www.w3.org/TR/2001/REC-SVG-20010904/DTD/svg10.dtd">
<svg version="1.0" xmlns="http://www.w3.org/2000/svg"
 width="180.000000pt" height="180.000000pt" viewBox="0 0 180.000000 180.000000"
 preserveAspectRatio="xMidYMid meet">
<metadata>
Created by potrace 1.11, written by Peter Selinger 2001-2013
</metadata>
<g transform="translate(0.000000,180.000000) scale(0.100000,-0.100000)"
fill="#000000" stroke="none">
<path d="M276 1788 c3 -4 0 -8 -5 -8 -21 0 -26 -2 -38 -12 -7 -6 -13 -7 -13
-2 0 4 -11 -3 -25 -16 -14 -13 -25 -20 -25 -15 0 4 -11 -4 -25 -19 -13 -14
-28 -26 -32 -26 -8 0 -33 -35 -33 -45 0 -3 -9 -14 -20 -25 -11 -11 -22 -31
-26 -45 -3 -14 -10 -25 -15 -25 -4 0 -6 -9 -4 -20 2 -11 0 -20 -5 -20 -12 0
-12 -1208 0 -1215 5 -3 7 -12 3 -20 -3 -8 0 -15 6 -15 6 0 11 -11 11 -25 0
-14 4 -25 9 -25 5 0 14 -13 21 -30 7 -16 16 -30 20 -30 3 0 13 -11 20 -25 7
-14 16 -23 18 -20 3 2 13 -5 23 -17 11 -11 19 -17 19 -13 0 5 7 0 15 -11 8
-10 15 -15 15 -10 0 5 9 1 21 -10 12 -10 24 -18 28 -18 3 1 17 -3 31 -9 29
-12 1178 -14 1220 -3 14 4 31 8 38 8 6 1 12 5 12 10 0 4 3 7 8 6 29 -6 173
113 178 148 2 9 7 20 13 23 6 4 12 16 14 26 1 11 6 26 10 33 5 6 5 17 2 22 -3
6 -1 10 4 10 8 0 11 188 11 605 -1 365 -4 605 -10 605 -5 0 -7 6 -4 14 3 8 1
17 -5 21 -6 3 -11 15 -11 25 0 10 -7 25 -15 33 -8 8 -11 17 -8 21 4 3 -1 6
-11 6 -9 0 -14 5 -11 10 3 6 1 10 -4 10 -6 0 -11 5 -11 10 0 11 -36 50 -46 50
-3 0 -12 6 -19 13 -26 22 -41 32 -55 35 -8 2 -18 9 -22 15 -4 6 -10 8 -14 4
-4 -4 -13 -2 -20 4 -8 6 -21 9 -29 5 -8 -3 -15 -1 -15 4 0 15 -1151 12 -1169
-3 -8 -7 -12 -7 -8 -1 3 6 0 11 -8 11 -8 0 -12 -4 -9 -9z"/>
</g>
</svg>
